<svg preserveAspectRatio="none" overflow="visible" style="display: block;" width="16" height="16" viewBox="0 0 16 16" fill="none" xmlns="http://www.w3.org/2000/svg">
<g id="Frame">
<path id="Vector" d="M4.36869 3.69365C4.71387 3.69365 4.99381 3.97546 4.99381 4.32309C4.99381 4.6709 4.71387 4.95271 4.36869 4.95271H2.375C2.03 4.95271 1.75006 5.23453 1.75006 5.58215V10.6177C1.75006 10.9653 2.02981 11.2471 2.375 11.2471H3.62506C3.97006 11.2471 4.25 11.5289 4.25 11.8767C4.25 12.2243 3.97025 12.5062 3.62506 12.5062H2.375C1.33944 12.5062 0.5 11.6605 0.5 10.6177V5.58215C0.5 4.53909 1.33944 3.69365 2.375 3.69365H4.36869ZM11.1249 3.69365C12.1606 3.69365 12.9999 4.53928 12.9999 5.58215V10.6177C12.9999 11.6607 12.1606 12.5062 11.1249 12.5062H9.13138C8.78638 12.5062 8.50644 12.2243 8.50644 11.8767C8.50644 11.5289 8.78619 11.2471 9.13138 11.2471H11.1253C11.4703 11.2471 11.7502 10.9653 11.7502 10.6177V5.58215C11.7502 5.23453 11.4704 4.95271 11.1253 4.95271H9.875C9.53 4.95271 9.25006 4.6709 9.25006 4.32309C9.25006 3.97546 9.52981 3.69365 9.875 3.69365H11.1249ZM15.5 8.72934V7.47046C15.5 7.12284 15.2202 6.84103 14.8751 6.84103C14.5299 6.84103 14.2499 7.12284 14.2499 7.47046V8.72934C14.2499 9.07697 14.5299 9.35878 14.8751 9.35878C15.2201 9.35878 15.5 9.07697 15.5 8.72934Z" fill="#16A36A"/>
<path id="Vector_2" d="M7.72096 3.7992C7.85908 3.8925 7.95477 4.03656 7.98722 4.20005C8.01966 4.36354 7.98624 4.53323 7.89421 4.6722L6.04209 7.47026H8.62415C9.12346 7.47026 9.42102 8.03051 9.14427 8.44901L6.64434 12.2254C6.59913 12.2941 6.54077 12.3531 6.47262 12.3991C6.40447 12.4451 6.32788 12.4771 6.24728 12.4933C6.16669 12.5096 6.08368 12.5096 6.00305 12.4936C5.92242 12.4775 5.84577 12.4457 5.77752 12.3998C5.63943 12.3066 5.54373 12.1625 5.51125 11.9991C5.47878 11.8357 5.51214 11.666 5.60409 11.527L7.4564 8.72895H4.87415C4.37503 8.72895 4.07727 8.1687 4.35421 7.7502L6.85415 3.97358C6.89936 3.90491 6.95772 3.84588 7.02587 3.7999C7.09402 3.75392 7.17061 3.72189 7.2512 3.70568C7.3318 3.68947 7.41481 3.68938 7.49544 3.70543C7.57607 3.72149 7.65272 3.75336 7.72096 3.7992Z" fill="#2DD238"/>
</g>
</svg>
