<svg preserveAspectRatio="none" overflow="visible" style="display: block;" width="20" height="20" viewBox="0 0 20 20" fill="none" xmlns="http://www.w3.org/2000/svg">
<g id="Frame">
<path id="Vector" d="M8.87119 1.00012C11.4426 1.00012 13.5383 3.24623 13.5383 6.01434C13.5466 6.84376 13.3527 7.66271 12.9734 8.40039C12.5942 9.13807 12.041 9.77226 11.3616 10.2481C12.2324 10.5724 13.0373 11.0516 13.7376 11.6624H11.3976C10.5571 11.2716 9.64122 11.0697 8.71433 11.071C5.15681 11.071 2.26013 14.0101 2.26013 17.6023C2.26013 17.7694 2.19376 17.9297 2.07561 18.0478C1.95746 18.1659 1.79722 18.2323 1.63014 18.2323C1.46306 18.2323 1.30281 18.1659 1.18467 18.0478C1.06652 17.9297 1.00015 17.7694 1.00015 17.6023C0.996462 15.9687 1.50224 14.3746 2.44707 13.0419C3.3919 11.7093 4.72875 10.7044 6.27151 10.1671C5.62253 9.68718 5.09657 9.06023 4.73675 8.33769C4.37693 7.61515 4.19352 6.81761 4.20154 6.01048C4.20668 3.24623 6.30622 1.00012 8.87119 1.00012ZM8.87119 2.38224C7.04293 2.38224 5.53995 4.00608 5.53995 6.01048C5.53995 8.01488 7.04293 9.63872 8.87119 9.63872C10.6995 9.63872 12.2037 8.01488 12.2037 6.01048C12.2037 4.00608 10.7046 2.38224 8.87119 2.38224Z" fill="#2563EB"/>
<path id="Vector_2" d="M17.7141 12.3296C18.0612 12.3363 18.3915 12.4805 18.6326 12.7304C18.8736 12.9804 19.0056 13.3157 18.9998 13.6628V17.6652C19.006 18.0126 18.8741 18.3482 18.633 18.5985C18.392 18.8487 18.0615 18.993 17.7141 18.9998H9.9999C9.65253 18.993 9.32203 18.8487 9.08098 18.5985C8.83992 18.3482 8.70801 18.0126 8.71421 17.6652V13.6654C8.70766 13.3178 8.83942 12.9818 9.08051 12.7313C9.32161 12.4808 9.6523 12.3363 9.9999 12.3296H17.7141ZM17.7141 13.5304H9.9999C9.97437 13.5306 9.94949 13.5385 9.92843 13.5529C9.90736 13.5673 9.89107 13.5877 9.88162 13.6114L9.87133 13.6628V17.6652C9.86923 17.6922 9.87567 17.7191 9.88975 17.7422C9.90383 17.7653 9.92483 17.7833 9.94976 17.7938L9.9999 17.8041H17.7141C17.7396 17.8038 17.7645 17.796 17.7856 17.7816C17.8066 17.7672 17.8229 17.7468 17.8324 17.7231L17.8427 17.6704V13.6654C17.8448 13.6385 17.8383 13.6115 17.8242 13.5884C17.8102 13.5654 17.7892 13.5473 17.7642 13.5368L17.7141 13.5304ZM14.4998 15.2494H11.4065C11.0979 15.2494 10.8433 15.0385 10.8433 14.7827C10.8433 14.5268 11.1005 14.316 11.4065 14.316H14.4998C14.8084 14.316 15.063 14.5255 15.063 14.7827C15.063 15.0398 14.8097 15.2494 14.4998 15.2494ZM14.4998 16.7498H11.4065C11.0979 16.7498 10.8433 16.5389 10.8433 16.2831C10.8433 16.0272 11.1005 15.8164 11.4065 15.8164H14.4998C14.8084 15.8164 15.063 16.026 15.063 16.2831C15.063 16.5402 14.8097 16.7498 14.4998 16.7498Z" fill="#2563EB"/>
</g>
</svg>
