<svg width="18" height="18" viewBox="0 0 18 18" fill="none" xmlns="http://www.w3.org/2000/svg">
  <path d="M6.675 15.75H2.625C2.4 15.75 2.25 15.6 2.25 15.375V2.625C2.25 2.4 2.4 2.25 2.625 2.25H13.425C13.65 2.25 13.8 2.4 13.8 2.625V7.575C13.8 7.95 14.1 8.325 14.55 8.325C15 8.325 15.3 8.025 15.3 7.575V2.625C15.3 1.575 14.475 0.75 13.425 0.75H2.625C1.575 0.75 0.75 1.575 0.75 2.625V15.375C0.75 16.425 1.575 17.25 2.625 17.25H6.675C7.05 17.25 7.425 16.95 7.425 16.5C7.425 16.05 7.125 15.75 6.675 15.75Z" fill="#354258"/>
  <path d="M6.67539 11.2502C7.12539 11.2502 7.42539 10.9502 7.42539 10.5002V5.32519H9.07539C9.52539 5.32519 9.82539 5.0252 9.82539 4.5752C9.82539 4.1252 9.52539 3.8252 9.07539 3.8252H4.27539C3.82539 3.8252 3.52539 4.1252 3.52539 4.5752C3.52539 5.0252 3.82539 5.32519 4.27539 5.32519H5.92539V10.5002C5.92539 10.9502 6.30039 11.2502 6.67539 11.2502ZM7.35039 12.5252H4.27539C3.82539 12.5252 3.52539 12.8252 3.52539 13.2752C3.52539 13.7252 3.82539 14.0252 4.27539 14.0252H7.35039C7.80039 14.0252 8.10039 13.7252 8.10039 13.2752C8.10039 12.8252 7.80039 12.5252 7.35039 12.5252ZM9.45039 8.7752H11.7004C12.1504 8.7752 12.4504 8.4752 12.4504 8.0252C12.4504 7.5752 12.1504 7.2752 11.7004 7.2752H9.45039C9.00039 7.2752 8.70039 7.5752 8.70039 8.0252C8.70039 8.4752 9.00039 8.7752 9.45039 8.7752ZM9.90039 11.2502C10.3504 11.2502 10.6504 10.9502 10.6504 10.5002C10.6504 10.0502 10.3504 9.7502 9.90039 9.7502H9.45039C9.00039 9.7502 8.70039 10.0502 8.70039 10.5002C8.70039 10.9502 9.00039 11.2502 9.45039 11.2502H9.90039ZM17.0254 11.2502L15.5254 9.7502C15.2254 9.4502 14.7754 9.4502 14.4754 9.7502L9.52539 14.6252C9.37539 14.7752 9.30039 14.9252 9.30039 15.1502V16.5002C9.30039 16.9502 9.60039 17.2502 10.0504 17.2502H11.7754C12.0004 17.2502 12.1504 17.1752 12.3004 17.0252L17.0254 12.3002C17.1754 12.1502 17.2504 12.0002 17.2504 11.7752C17.2504 11.5502 17.1754 11.4002 17.0254 11.2502ZM11.4754 15.7502H10.8004V15.3752L15.0004 11.2502L15.4504 11.7002L11.4754 15.7502Z" fill="#354258"/>
</svg>
